<svg xmlns="http://www.w3.org/2000/svg" xmlns:xlink="http://www.w3.org/1999/xlink" preserveAspectRatio="xMidYMid" width="81.909" height="34.957" viewBox="0 0 2149.841 917.5">
  <defs>
    <style>
      .cls-1 {
        fill: #fff;
        fill-rule: evenodd;
      }
    </style>
  </defs>
  <path d="M2138.096,282.083 L1914.605,282.083 C1911.756,283.277 1908.760,283.893 1905.605,283.893 L1602.554,283.893 L1602.554,388.123 C1602.554,398.399 1606.766,401.113 1615.219,396.279 C1623.657,393.254 1633.156,387.968 1643.714,380.420 C1654.259,372.872 1664.365,365.168 1674.020,357.309 C1683.660,349.450 1691.957,342.510 1698.897,336.460 C1705.823,330.425 1710.205,327.400 1712.014,327.400 C1718.036,326.806 1725.880,328.912 1735.534,333.746 C1745.174,338.580 1755.281,344.630 1765.840,351.867 C1776.384,359.118 1786.491,366.977 1796.145,375.430 C1805.785,383.897 1813.926,391.756 1820.570,398.993 C1838.055,415.926 1852.373,434.655 1863.540,455.193 C1874.692,475.745 1880.275,496.891 1880.275,518.630 L1880.275,519.535 C1882.085,532.836 1880.417,548.243 1875.300,565.770 C1870.169,583.297 1862.480,601.263 1852.232,619.694 C1841.970,638.126 1829.616,656.092 1815.142,673.619 C1800.668,691.146 1785.586,707.005 1769.911,721.197 C1754.221,735.388 1738.093,746.724 1721.513,755.191 C1704.918,763.630 1689.087,767.870 1674.020,767.870 C1666.782,767.870 1656.068,765.905 1641.905,761.990 C1627.728,758.060 1613.409,753.848 1598.935,749.325 C1584.461,744.802 1571.485,740.576 1560.036,736.660 C1548.573,732.731 1541.944,731.077 1540.134,731.685 C1532.289,732.886 1526.565,731.685 1522.946,728.066 C1519.921,724.448 1517.660,719.911 1516.161,714.469 C1514.649,709.041 1513.448,699.373 1512.543,685.464 C1511.638,671.569 1511.031,652.077 1510.734,627.002 C1510.423,601.927 1510.281,567.933 1510.281,525.019 L1510.281,283.893 L1456.004,283.893 C1452.151,283.893 1448.663,283.277 1445.519,282.083 L1133.954,282.083 L1096.861,282.083 L794.724,282.083 L778.434,282.083 L415.684,282.083 C410.256,282.083 405.592,280.274 401.662,276.656 C397.747,273.037 395.782,268.217 395.782,262.182 C395.782,259.716 396.130,257.436 396.787,255.321 C392.412,238.909 386.959,225.661 380.411,215.593 C371.959,202.631 361.414,193.741 348.749,188.906 C337.894,184.086 325.229,181.076 310.755,179.860 C296.281,178.659 275.771,178.051 249.240,178.051 L227.529,178.051 C221.493,178.051 216.221,178.362 211.698,178.956 C207.175,179.563 202.948,180.016 199.033,180.312 C195.103,180.623 190.736,181.373 185.916,182.574 C181.082,183.790 177.619,186.504 175.512,190.716 C173.392,194.942 171.738,203.988 170.537,217.855 C168.728,237.757 168.417,262.337 169.632,291.582 C170.834,320.841 172.643,349.337 175.060,377.070 C177.463,404.816 179.725,428.945 181.845,449.440 C183.951,469.950 185.308,481.102 185.916,482.911 C186.509,488.339 188.022,491.816 190.439,493.315 C192.842,494.827 196.319,495.435 200.842,495.124 C205.365,494.827 211.245,493.922 218.482,492.410 C225.719,490.912 234.158,489.244 243.812,487.435 C254.668,485.625 264.915,483.816 274.570,482.007 C284.209,480.198 292.507,477.031 299.447,472.508 C306.373,467.985 311.956,461.511 316.183,453.059 C320.395,444.620 322.812,433.468 323.420,419.587 C324.013,418.386 326.727,416.873 331.561,415.064 C336.381,413.255 341.809,411.757 347.845,410.541 C353.866,409.340 359.449,408.435 364.580,407.827 C369.697,407.233 372.863,407.530 374.079,408.732 C375.280,415.969 375.733,424.874 375.436,435.418 C375.125,445.977 374.079,456.677 372.270,467.533 C370.460,478.388 367.888,488.792 364.580,498.742 C361.259,508.693 357.188,516.991 352.368,523.620 C343.915,530.857 336.381,534.631 329.752,534.928 C323.109,535.239 315.872,534.179 308.041,531.761 C300.196,529.359 290.853,526.942 279.997,524.524 C269.142,522.122 255.261,522.122 238.384,524.524 C224.504,526.942 213.959,528.751 206.722,529.952 C199.485,531.168 194.651,534.023 192.248,538.546 C189.831,543.069 189.082,550.306 189.987,560.257 C190.891,570.208 192.545,585.135 194.962,605.037 C197.365,624.345 199.033,641.080 199.937,655.244 C200.842,669.421 201.888,681.026 203.104,690.072 C204.305,697.309 204.305,707.415 203.104,720.377 C201.888,733.339 199.174,747.657 194.962,763.347 C190.736,779.022 184.700,795.306 176.869,812.197 C169.025,829.074 159.229,844.764 147.469,859.238 C135.709,873.712 121.531,886.221 104.951,896.780 C88.357,907.325 68.907,914.109 46.603,917.134 C41.768,918.336 38.461,916.526 36.652,911.706 C31.818,899.635 30.616,890.589 33.033,884.567 L44.793,880.949 C62.886,872.496 76.908,862.701 86.859,851.548 C96.810,840.382 104.047,829.229 108.570,818.077 C113.093,806.911 115.496,796.663 115.807,787.320 C116.104,777.962 116.259,771.178 116.259,766.965 C115.044,751.276 112.937,728.066 109.927,697.309 C106.902,666.551 103.439,632.486 99.523,595.086 C95.594,557.699 91.382,518.800 86.859,478.388 C82.336,437.991 78.265,399.996 74.646,364.405 C71.028,328.827 67.861,297.914 65.148,271.680 C62.434,245.446 60.766,227.509 60.172,217.855 C59.564,208.808 58.660,201.571 57.458,196.143 C56.243,190.716 53.684,186.348 49.769,183.026 C45.839,179.719 40.115,177.005 32.581,174.885 C25.033,172.779 14.333,170.517 0.466,168.100 C-0.141,165.697 -0.141,162.220 0.466,157.697 C1.060,153.174 1.965,148.806 3.180,144.580 C3.774,141.569 7.096,140.056 13.131,140.056 C14.941,140.056 19.761,140.212 27.605,140.509 C35.436,140.820 44.482,140.961 54.744,140.961 C65.600,140.961 76.908,141.117 88.668,141.413 C100.428,141.724 110.831,141.866 119.878,141.866 L340.608,105.680 C356.891,105.680 370.757,106.741 382.221,108.847 C393.670,110.967 403.479,113.370 411.621,116.084 C419.763,118.798 426.844,121.667 432.880,124.678 C438.901,127.703 445.234,130.416 451.877,132.819 C451.269,147.901 449.912,162.983 447.806,178.051 C445.686,193.133 443.424,206.999 441.022,219.664 C439.504,227.615 438.110,234.850 436.834,241.375 L778.434,241.375 L794.724,241.375 L1096.861,241.375 L1133.954,241.375 L1475.901,241.375 C1478.043,241.645 1480.061,242.261 1481.967,243.184 L1510.281,243.184 L1510.281,235.043 C1510.281,216.950 1510.126,200.073 1509.829,184.383 C1509.518,168.708 1509.377,155.138 1509.377,143.675 C1509.377,131.010 1509.066,123.179 1508.472,120.155 C1507.864,114.133 1507.115,107.037 1506.211,98.896 C1505.306,90.754 1503.638,82.471 1501.235,74.018 C1498.818,65.580 1495.355,56.986 1490.832,48.236 C1486.309,39.501 1480.118,31.501 1472.287,24.264 C1463.834,17.634 1463.834,11.005 1472.287,4.362 C1477.715,0.743 1486.450,-0.614 1498.521,0.291 C1510.578,1.196 1523.243,2.863 1536.516,5.266 C1549.774,7.684 1562.439,10.242 1574.510,12.956 C1586.567,15.670 1595.006,17.027 1599.840,17.027 C1604.660,17.027 1607.077,24.871 1607.077,40.547 C1607.077,43.572 1606.921,50.950 1606.625,62.710 C1606.314,74.471 1606.017,89.397 1605.720,107.490 C1605.409,125.582 1604.957,146.247 1604.363,169.457 C1603.755,192.680 1603.458,217.261 1603.458,243.184 L1878.011,243.184 C1879.672,241.994 1881.331,241.375 1882.990,241.375 L2138.096,241.375 C2141.107,241.983 2143.821,244.244 2146.238,248.160 C2148.641,252.089 2149.856,256.754 2149.856,262.182 C2149.856,275.454 2145.927,282.083 2138.096,282.083 ZM1599.388,473.865 C1599.077,484.721 1598.935,501.612 1598.935,524.524 L1598.935,617.701 C1598.935,649.067 1604.660,673.195 1616.123,690.072 C1623.360,700.927 1633.608,711.189 1646.881,720.829 C1660.139,730.469 1672.507,735.303 1683.970,735.303 C1695.420,735.303 1707.491,728.519 1720.156,714.949 C1732.821,701.380 1744.425,685.252 1754.984,666.551 C1765.529,647.865 1773.981,628.557 1780.314,608.655 C1786.646,588.753 1788.908,572.470 1787.099,559.805 L1787.099,558.900 C1787.099,541.416 1783.932,524.228 1777.600,507.336 C1771.267,490.459 1762.066,475.378 1750.009,462.105 C1733.725,443.419 1718.488,431.503 1704.325,426.372 C1690.147,421.255 1676.734,418.683 1664.069,418.683 C1653.807,418.683 1643.404,419.743 1632.859,421.849 C1622.300,423.969 1614.611,426.527 1609.791,429.538 C1604.957,432.563 1602.243,439.192 1601.649,449.440 C1600.434,454.868 1599.684,463.010 1599.388,473.865 ZM2069.344,131.010 C2067.535,131.618 2064.510,133.879 2060.298,137.795 C2056.072,141.724 2051.704,146.247 2047.181,151.364 C2042.658,156.495 2038.276,161.923 2034.064,167.648 C2029.837,173.386 2027.123,178.362 2025.922,182.574 C2024.706,187.408 2019.886,189.811 2011.448,189.811 C2004.211,189.811 1998.331,186.645 1993.808,180.312 C1989.285,173.980 1982.189,165.697 1972.549,155.435 C1971.333,154.234 1968.930,150.163 1965.312,143.223 C1961.693,136.297 1956.859,131.321 1950.838,128.296 C1942.385,124.678 1938.173,119.858 1938.173,113.822 C1938.173,110.811 1939.530,107.348 1942.244,103.419 C1944.957,99.503 1948.124,97.242 1951.742,96.634 C1954.145,96.634 1957.919,94.528 1963.050,90.302 C1968.167,86.090 1973.298,81.411 1978.429,76.280 C1983.546,71.163 1988.224,66.329 1992.451,61.806 C1996.663,57.283 1999.080,54.427 1999.688,53.212 C2002.091,47.784 2004.508,45.070 2006.925,45.070 L2018.685,45.070 C2023.505,45.070 2027.123,49.000 2029.541,56.830 C2029.541,58.046 2031.194,61.057 2034.516,65.877 C2037.824,70.711 2041.598,75.531 2045.824,80.351 C2050.036,85.185 2053.810,89.708 2057.132,93.920 C2060.439,98.147 2062.404,100.253 2063.012,100.253 C2067.832,102.062 2071.295,104.324 2073.415,107.037 C2075.521,109.751 2076.581,115.335 2076.581,123.773 C2076.581,127.999 2074.164,130.416 2069.344,131.010 ZM1342.016,131.010 C1340.207,131.618 1337.182,133.879 1332.970,137.795 C1328.743,141.724 1324.376,146.247 1319.853,151.364 C1315.329,156.495 1310.948,161.923 1306.735,167.648 C1302.509,173.386 1299.795,178.362 1298.594,182.574 C1297.378,187.408 1292.558,189.811 1284.120,189.811 C1276.883,189.811 1271.003,186.645 1266.479,180.312 C1261.956,173.980 1254.861,165.697 1245.221,155.435 C1244.005,154.234 1241.602,150.163 1237.984,143.223 C1234.365,136.297 1229.531,131.321 1223.509,128.296 C1215.057,124.678 1210.845,119.858 1210.845,113.822 C1210.845,110.811 1212.202,107.348 1214.915,103.419 C1217.629,99.503 1220.796,97.242 1224.414,96.634 C1226.817,96.634 1230.591,94.528 1235.722,90.302 C1240.839,86.090 1245.970,81.411 1251.101,76.280 C1256.217,71.163 1260.896,66.329 1265.122,61.806 C1269.335,57.283 1271.752,54.427 1272.359,53.212 C1274.762,47.784 1277.180,45.070 1279.597,45.070 L1291.357,45.070 C1296.177,45.070 1299.795,49.000 1302.212,56.830 C1302.212,58.046 1303.866,61.057 1307.188,65.877 C1310.495,70.711 1314.269,75.531 1318.496,80.351 C1322.708,85.185 1326.482,89.708 1329.803,93.920 C1333.111,98.147 1335.076,100.253 1335.684,100.253 C1340.504,102.062 1343.967,104.324 1346.087,107.037 C1348.193,109.751 1349.253,115.335 1349.253,123.773 C1349.253,127.999 1346.836,130.416 1342.016,131.010 ZM660.839,131.010 C659.030,131.618 656.005,133.879 651.792,137.795 C647.566,141.724 643.199,146.247 638.675,151.364 C634.152,156.495 629.770,161.923 625.558,167.648 C621.332,173.386 618.618,178.362 617.417,182.574 C616.201,187.408 611.381,189.811 602.942,189.811 C595.705,189.811 589.825,186.645 585.302,180.312 C580.779,173.980 573.683,165.697 564.043,155.435 C562.828,154.234 560.425,150.163 556.806,143.223 C553.188,136.297 548.354,131.321 542.332,128.296 C533.880,124.678 529.667,119.858 529.667,113.822 C529.667,110.811 531.024,107.348 533.738,103.419 C536.452,99.503 539.618,97.242 543.237,96.634 C545.640,96.634 549.414,94.528 554.545,90.302 C559.662,86.090 564.792,81.411 569.923,76.280 C575.040,71.163 579.719,66.329 583.945,61.806 C588.157,57.283 590.574,54.427 591.182,53.212 C593.585,47.784 596.002,45.070 598.419,45.070 L610.180,45.070 C614.999,45.070 618.618,49.000 621.035,56.830 C621.035,58.046 622.689,61.057 626.011,65.877 C629.318,70.711 633.092,75.531 637.318,80.351 C641.531,85.185 645.305,89.708 648.626,93.920 C651.934,98.147 653.899,100.253 654.506,100.253 C659.326,102.062 662.789,104.324 664.910,107.037 C667.016,109.751 668.076,115.335 668.076,123.773 C668.076,127.999 665.659,130.416 660.839,131.010 ZM470.414,600.061 C477.340,593.135 484.733,586.803 492.578,581.064 C500.408,575.339 507.645,570.661 514.289,567.042 C535.392,556.187 556.198,545.190 576.708,534.023 C597.204,522.871 619.523,515.478 643.651,511.860 C643.651,507.040 643.792,503.577 644.103,501.456 C644.400,499.350 644.555,497.386 644.555,495.576 L644.555,479.293 C644.555,464.225 643.199,451.405 640.485,440.846 C637.771,430.302 634.294,423.517 630.081,420.492 C626.463,416.280 619.975,412.506 610.632,409.184 C601.275,405.876 590.574,404.209 578.517,404.209 C574.291,406.626 569.923,409.340 565.400,412.350 C560.877,415.375 556.198,418.386 551.379,421.397 C550.771,425.623 550.318,430.443 550.022,435.871 C549.711,441.298 549.569,448.239 549.569,456.677 C549.569,462.713 547.449,466.331 543.237,467.533 L486.245,484.721 C481.411,486.530 477.199,487.746 473.580,488.339 C469.962,488.947 467.545,489.244 466.343,489.244 C457.297,489.244 452.011,486.982 450.512,482.459 C449.000,477.936 449.608,472.367 452.321,465.723 C455.035,459.094 458.795,452.309 463.629,445.369 C468.449,438.443 472.068,432.860 474.485,428.634 C481.722,416.577 489.411,407.233 497.553,400.590 C505.695,393.961 514.133,388.081 522.883,382.950 C531.618,377.833 540.820,373.154 550.474,368.928 C560.114,364.716 570.673,359.288 582.136,352.645 C586.348,350.242 589.967,346.623 592.992,341.789 C596.002,336.969 598.419,332.149 600.229,327.315 C602.038,322.495 603.536,318.269 604.752,314.650 C605.953,311.032 607.155,309.222 608.370,309.222 C609.572,309.222 610.476,310.890 611.084,314.198 C611.678,317.519 612.893,321.590 614.703,326.410 C616.512,331.244 619.523,336.361 623.749,341.789 C627.961,347.217 634.605,352.051 643.651,356.263 C657.517,362.907 670.790,368.476 683.455,372.999 C696.119,377.522 706.664,384.307 715.117,393.353 C723.555,403.007 728.983,411.898 731.400,420.040 C733.803,428.181 735.019,436.182 735.019,444.012 C740.446,458.486 741.945,505.527 739.542,585.135 C737.125,664.742 739.542,721.282 746.779,754.753 C754.016,788.224 759.444,804.960 763.062,804.960 C769.691,804.960 777.225,803.603 785.678,800.889 C794.116,798.175 799.841,795.914 802.866,794.104 C804.675,792.889 806.937,793.949 809.651,797.271 C812.364,800.578 813.410,803.744 812.817,806.769 L810.103,823.053 C810.103,826.671 807.686,829.682 802.866,832.099 C799.247,833.908 793.212,836.311 784.773,839.336 C776.321,842.347 766.822,845.216 756.277,847.930 C745.719,850.644 734.708,853.047 723.258,855.167 C711.795,857.273 701.236,858.333 691.596,858.333 C687.370,858.333 682.550,851.393 677.122,837.527 C671.694,823.646 666.563,807.363 661.743,788.677 C656.909,769.976 652.542,751.134 648.626,732.137 C644.697,713.140 642.138,698.524 640.937,688.263 C631.283,693.690 620.427,699.274 608.370,704.998 C596.299,710.737 584.694,716.009 573.542,720.829 C562.375,725.663 552.580,729.565 544.141,732.589 C535.689,735.600 529.964,737.113 526.953,737.113 C508.253,737.113 489.864,728.660 471.771,711.783 C466.937,706.963 461.368,698.369 455.035,686.001 C448.703,673.647 445.537,658.410 445.537,640.317 C445.537,634.296 447.940,627.808 452.774,620.868 C457.594,613.942 463.474,607.001 470.414,600.061 ZM569.019,676.502 C571.125,679.527 575.493,681.026 582.136,681.026 L583.041,681.026 C586.659,681.026 592.087,679.980 599.324,677.859 C606.561,675.753 615.607,672.290 626.463,667.456 C634.901,662.636 640.032,656.304 641.842,648.459 C641.842,645.448 641.983,641.080 642.294,635.342 C642.591,629.617 642.888,623.440 643.199,616.797 C643.495,610.168 643.651,603.835 643.651,597.800 L643.651,583.325 C643.651,573.078 642.138,567.947 639.128,567.947 C628.272,569.756 619.975,571.721 614.250,573.827 C608.512,575.947 604.144,578.209 601.133,580.612 C598.108,583.029 595.550,585.446 593.444,587.849 C591.324,590.266 587.861,592.980 583.041,595.990 C579.422,599.015 576.553,602.634 574.447,606.846 C572.326,611.072 571.280,617.405 571.280,625.843 C571.280,633.080 570.517,640.176 569.019,647.102 C567.506,654.042 566.602,659.922 566.305,664.742 C565.994,669.576 566.899,673.492 569.019,676.502 ZM804.668,748.873 C816.117,747.064 824.867,742.837 830.902,736.208 C836.924,729.565 841.305,722.342 844.019,714.497 C846.733,706.666 848.232,699.118 848.543,691.881 C848.839,684.644 849.292,679.824 849.899,677.407 C851.709,666.551 852.613,628.260 852.613,562.519 L852.613,491.053 C852.613,484.424 852.302,477.187 851.709,469.342 C851.101,461.511 849.744,454.119 847.638,447.179 C845.518,440.252 842.210,433.920 837.687,428.181 C833.164,422.457 826.973,418.386 819.142,415.969 C814.308,414.767 810.393,411.149 807.382,405.113 C804.357,399.092 803.452,394.569 804.668,391.544 C813.714,386.116 823.962,382.808 835.425,381.593 C846.875,380.391 858.183,379.487 869.349,378.879 C880.501,378.285 891.060,377.677 901.011,377.070 C910.962,376.476 918.948,374.059 924.984,369.833 C929.196,367.430 932.815,366.214 935.839,366.214 C937.041,366.214 939.599,367.882 943.529,371.190 C947.444,374.511 948.801,377.974 947.600,381.593 C946.992,387.628 946.384,392.759 945.790,396.972 C945.183,401.198 944.730,405.566 944.433,410.089 C944.122,414.612 943.826,419.898 943.529,425.920 C943.218,431.955 943.076,439.800 943.076,449.440 C947.289,446.429 953.027,441.906 960.264,435.871 C967.502,429.849 975.191,423.517 983.333,416.873 C991.474,410.244 999.460,403.615 1007.305,396.972 C1015.136,390.342 1021.468,385.211 1026.303,381.593 C1029.313,378.582 1033.229,375.868 1038.063,373.451 C1042.883,371.048 1048.310,369.833 1054.346,369.833 C1060.975,369.833 1067.463,371.345 1073.796,374.356 C1080.128,377.381 1086.008,381.140 1091.436,385.664 C1096.864,390.187 1101.231,395.318 1104.553,401.042 C1107.861,406.781 1109.528,412.661 1109.528,418.683 C1109.528,424.110 1108.016,429.849 1105.005,435.871 C1101.980,441.906 1098.517,447.631 1094.602,453.059 C1090.673,458.486 1086.757,463.321 1082.842,467.533 C1078.912,471.759 1076.057,474.770 1074.248,476.579 C1067.011,482.007 1060.071,484.721 1053.441,484.721 C1047.406,484.721 1041.978,482.007 1037.158,476.579 C1034.133,472.367 1028.861,467.844 1021.327,463.010 C1013.779,458.190 1007.305,455.773 1001.877,455.773 C994.033,455.773 985.735,457.440 977.000,460.748 C968.251,464.070 960.561,468.748 953.932,474.770 C950.314,478.388 947.741,483.222 946.243,489.244 C944.730,495.279 943.981,506.432 943.981,522.715 L943.981,632.175 C943.981,643.031 943.373,651.625 942.172,657.957 C940.956,664.290 941.267,668.969 943.076,671.979 C943.076,683.443 940.363,694.454 934.935,704.998 C929.507,715.557 922.864,725.056 915.033,733.494 C907.188,741.933 899.202,749.014 891.060,754.753 C882.919,760.478 876.431,763.941 871.611,765.156 C852.910,769.368 840.090,771.785 833.164,772.393 C826.224,772.987 821.545,773.298 819.142,773.298 C814.308,773.298 812.810,770.881 814.619,766.061 L804.668,748.873 ZM1151.591,600.061 C1158.517,593.135 1165.910,586.803 1173.755,581.064 C1181.585,575.339 1188.822,570.661 1195.466,567.042 C1216.569,556.187 1237.376,545.190 1257.885,534.023 C1278.381,522.871 1300.700,515.478 1324.828,511.860 C1324.828,507.040 1324.969,503.577 1325.280,501.456 C1325.577,499.350 1325.733,497.386 1325.733,495.576 L1325.733,479.293 C1325.733,464.225 1324.376,451.405 1321.662,440.846 C1318.948,430.302 1315.471,423.517 1311.259,420.492 C1307.640,416.280 1301.152,412.506 1291.809,409.184 C1282.452,405.876 1271.752,404.209 1259.695,404.209 C1255.468,406.626 1251.101,409.340 1246.578,412.350 C1242.054,415.375 1237.376,418.386 1232.556,421.397 C1231.948,425.623 1231.496,430.443 1231.199,435.871 C1230.888,441.298 1230.746,448.239 1230.746,456.677 C1230.746,462.713 1228.626,466.331 1224.414,467.533 L1167.422,484.721 C1162.588,486.530 1158.376,487.746 1154.758,488.339 C1151.139,488.947 1148.722,489.244 1147.520,489.244 C1138.474,489.244 1133.188,486.982 1131.689,482.459 C1130.177,477.936 1130.785,472.367 1133.499,465.723 C1136.213,459.094 1139.972,452.309 1144.807,445.369 C1149.627,438.443 1153.245,432.860 1155.662,428.634 C1162.899,416.577 1170.589,407.233 1178.730,400.590 C1186.872,393.961 1195.310,388.081 1204.060,382.950 C1212.795,377.833 1221.997,373.154 1231.651,368.928 C1241.291,364.716 1251.850,359.288 1263.313,352.645 C1267.525,350.242 1271.144,346.623 1274.169,341.789 C1277.180,336.969 1279.597,332.149 1281.406,327.315 C1283.215,322.495 1284.713,318.269 1285.929,314.650 C1287.130,311.032 1288.332,309.222 1289.547,309.222 C1290.749,309.222 1291.654,310.890 1292.261,314.198 C1292.855,317.519 1294.071,321.590 1295.880,326.410 C1297.689,331.244 1300.700,336.361 1304.926,341.789 C1309.138,347.217 1315.782,352.051 1324.828,356.263 C1338.694,362.907 1351.967,368.476 1364.632,372.999 C1377.297,377.522 1387.841,384.307 1396.294,393.353 C1404.732,403.007 1410.160,411.898 1412.577,420.040 C1414.980,428.181 1416.196,436.182 1416.196,444.012 C1421.624,458.486 1423.122,505.527 1420.719,585.135 C1418.302,664.742 1420.719,721.282 1427.956,754.753 C1435.193,788.224 1440.621,804.960 1444.239,804.960 C1450.868,804.960 1458.402,803.603 1466.855,800.889 C1475.294,798.175 1481.018,795.914 1484.043,794.104 C1485.852,792.889 1488.114,793.949 1490.828,797.271 C1493.542,800.578 1494.588,803.744 1493.994,806.769 L1491.280,823.053 C1491.280,826.671 1488.863,829.682 1484.043,832.099 C1480.425,833.908 1474.389,836.311 1465.950,839.336 C1457.498,842.347 1447.999,845.216 1437.455,847.930 C1426.896,850.644 1415.885,853.047 1404.436,855.167 C1392.972,857.273 1382.414,858.333 1372.774,858.333 C1368.547,858.333 1363.727,851.393 1358.299,837.527 C1352.872,823.646 1347.741,807.363 1342.921,788.677 C1338.087,769.976 1333.719,751.134 1329.803,732.137 C1325.874,713.140 1323.316,698.524 1322.114,688.263 C1312.460,693.690 1301.604,699.274 1289.547,704.998 C1277.476,710.737 1265.872,716.009 1254.719,720.829 C1243.553,725.663 1233.757,729.565 1225.319,732.589 C1216.866,735.600 1211.141,737.113 1208.131,737.113 C1189.430,737.113 1171.041,728.660 1152.948,711.783 C1148.114,706.963 1142.545,698.369 1136.213,686.001 C1129.880,673.647 1126.714,658.410 1126.714,640.317 C1126.714,634.296 1129.117,627.808 1133.951,620.868 C1138.771,613.942 1144.651,607.001 1151.591,600.061 ZM1250.196,676.502 C1252.302,679.527 1256.670,681.026 1263.313,681.026 L1264.218,681.026 C1267.836,681.026 1273.264,679.980 1280.501,677.859 C1287.738,675.753 1296.785,672.290 1307.640,667.456 C1316.079,662.636 1321.210,656.304 1323.019,648.459 C1323.019,645.448 1323.160,641.080 1323.471,635.342 C1323.768,629.617 1324.065,623.440 1324.376,616.797 C1324.673,610.168 1324.828,603.835 1324.828,597.800 L1324.828,583.325 C1324.828,573.078 1323.316,567.947 1320.305,567.947 C1309.449,569.756 1301.152,571.721 1295.428,573.827 C1289.689,575.947 1285.321,578.209 1282.310,580.612 C1279.286,583.029 1276.727,585.446 1274.621,587.849 C1272.501,590.266 1269.038,592.980 1264.218,595.990 C1260.599,599.015 1257.730,602.634 1255.624,606.846 C1253.504,611.072 1252.458,617.405 1252.458,625.843 C1252.458,633.080 1251.694,640.176 1250.196,647.102 C1248.684,654.042 1247.779,659.922 1247.482,664.742 C1247.171,669.576 1248.076,673.492 1250.196,676.502 ZM1921.889,734.399 C1935.756,731.374 1945.862,725.663 1952.195,717.211 C1958.527,708.772 1962.287,698.214 1963.502,685.549 C1964.096,681.930 1964.704,674.693 1965.312,663.838 C1965.905,652.982 1966.513,640.317 1967.121,625.843 C1967.715,611.369 1968.167,595.990 1968.478,579.707 C1968.775,563.424 1968.619,548.045 1968.026,533.571 L1965.312,440.394 C1965.312,439.192 1964.859,437.086 1963.955,434.061 C1963.050,431.051 1961.085,427.588 1958.075,423.658 C1955.050,419.743 1950.682,415.969 1944.957,412.350 C1939.219,408.732 1931.529,406.018 1921.889,404.209 C1918.271,403.615 1917.663,399.996 1920.080,393.353 C1923.091,386.116 1925.056,381.593 1925.960,379.784 C1926.865,377.974 1928.519,376.773 1930.936,376.165 C1939.374,373.762 1948.717,372.094 1958.979,371.190 C1969.227,370.285 1979.927,369.380 1991.094,368.476 C2002.246,367.571 2013.257,366.370 2024.113,364.857 C2034.968,363.359 2045.216,361.097 2054.870,358.072 L2058.489,357.168 C2059.690,356.574 2060.892,356.263 2062.107,356.263 C2063.917,356.263 2064.821,359.585 2064.821,366.214 C2064.213,381.296 2063.605,399.841 2063.012,421.849 C2062.404,443.871 2062.107,466.331 2062.107,489.244 L2062.107,601.418 C2062.107,629.165 2060.298,651.484 2056.679,668.361 C2053.061,685.252 2048.538,698.666 2043.110,708.617 C2037.682,718.568 2031.802,726.116 2025.470,731.233 C2019.137,736.349 2013.257,740.731 2007.829,744.350 C2000.592,749.170 1992.451,753.085 1983.404,756.110 C1974.358,759.121 1965.453,761.227 1956.718,762.442 C1947.968,763.644 1940.576,764.393 1934.554,764.704 C1928.519,765.001 1925.197,765.156 1924.603,765.156 C1920.377,765.156 1917.960,763.644 1917.366,760.633 C1916.151,758.824 1915.557,755.502 1915.557,750.682 L1915.557,738.922 C1915.557,735.897 1917.663,734.399 1921.889,734.399 Z" class="cls-1"/>
</svg>
